# xmcd
#
# Track frame offsets:
# 150
# 18195
# 35888
# 56482
# 75084
# 95372
# 114855
#
# Disc length: 1730 seconds
#
# Revision: 0
# Processed by: cddbd v1.5.1PL0 Copyright (c) Steve Scherf et al.
# Submitted via: Audion 3.0.2 (http://www.panic.com/audion/)
#
DISCID=4306c007
DTITLE=Name - Jessica
DYEAR=1900
DGENRE=
TTITLE0=Song1
TTITLE1=Song2
TTITLE2=Song3
TTITLE3=Song4
TTITLE4=Song5
TTITLE5=Song6
TTITLE6=Song7
EXTD=
EXTT0=
EXTT1=
EXTT2=
EXTT3=
EXTT4=
EXTT5=
EXTT6=
PLAYORDER=
